<svg id="Layer_1" data-name="Layer 1" xmlns="http://www.w3.org/2000/svg" viewBox="0 0 175.62 155.62"><defs><style>.cls-1{fill:none;stroke:#fff;stroke-miterlimit:4;stroke-width:5px;}</style></defs><path id="Path_90" data-name="Path 90" class="cls-1" d="M148.05,195.32s10.5,15.94,18.09,18.7,21.21,6.35,28.37,3.41,10-13.56,15.37-14.87,17-2.75,18.64.44-7.38-10.7-10.75-11.83-11.45-5.17-15.48-2.84-8.85,10.29-13.36,8.76-9.72,2.26-13.05-3.73-12-19.45-12-19.45,13.24,5.55,20.24,5.18,18.53-2.09,20.12-10,.47-23.53,1.71-29.93,1.81-18.62,5.54-20.41,12.86-5,12.86-5-13.62-4.11-17.3-3.31-12.82,4-14.44,9.92,0,27.63-3.89,30.09-13.41,6.62-16,5.7S157.75,152,157.75,152s14.43-13.81,20.37-26.88,1-30.23-1.59-32.25-7.56-4-10-6.57S164.38,75,167.59,73.55a30.27,30.27,0,0,0,6.84-4.76s-17,.52-19.46,3.65-9.85,13.46-7.12,19,12.77,15,9.62,23.33-13,20.4-14.47,22.72a27,27,0,0,1-5,5.06s1.41-19.49,1-24.32-1.66-12.39-4.49-15.78-6.1-6.27-9.93-7.47-8.64-.71-12.48-1.64-10.26-1-11.56-3.33-2.62-8.85-.93-10.57a12.07,12.07,0,0,0,2.51-4.38s-8,1.1-9.44,5-5.17,9.16-2,15.16,6.28,11,11.33,11.44,13.87.82,15.85,5.35,3.21,20.59,3.78,24.38S123.21,155,123.21,155s-9.32.19-12.47-1.83S101.28,143,101,139.59s2.81-12.66,2.53-15.23-6.28-9.82-11.21-10.08a30.37,30.37,0,0,0-8.66.76s5.94,3.25,6.75,5.64-3,10-2.47,14.22-.66,17.94,4.32,22.8,6.68,13.55,18.37,14.94a155.18,155.18,0,0,1,18.17,3.06s-.89,12-2.33,16.36-9.68,12.62-13.12,11.64-7.81-1.26-10.23-4,.56-13.46-4.95-18.44-10-10.8-14.92-11.11-13.69-3-17,1.49-8.46,14.44-6.43,20.24a39.49,39.49,0,0,0,6.56,11s-.74-17.13,1-19,10.22-6.35,13.25-4.07,2.28,14.74,5.43,21.3,4.24,15.63,11.53,16.47,17.48,2.78,22.78.35,13-2.42,17.55-7.1S148.05,195.32,148.05,195.32Z" transform="translate(-56.79 -66.09)"/></svg>