<svg id="Layer_1" data-name="Layer 1" xmlns="http://www.w3.org/2000/svg" viewBox="0 0 166.73 155.01"><defs><style>.cls-1{fill:none;stroke:#fff;stroke-linejoin:round;stroke-width:5px;}</style></defs><g id="Group_262" data-name="Group 262"><path id="Path_187" data-name="Path 187" class="cls-1" d="M111,118.91c-16.27-15.72-4.88-39.59,3.15-44.83s30.26-8.37,37.71,6.32,0,44.44,0,44.44,13.2-19.47,28.93-19.47,22.15-2.8,30.06,5.5,21.41,24.75,5.78,40.89A64.24,64.24,0,0,1,180.83,170s41.46,15.93,30.07,29.24S186.34,222.52,172,212.47s-33.28-28-33.28-28,.08,30.86-9.4,34.07-47.7.41-47.9-14.15S101.23,170,101.23,170s-29.55,1.9-33.52-14.15-10.21-32,0-41.51S111,118.91,111,118.91Z" transform="translate(-59.65 -67.21)"/></g></svg>